<mxfile host="app.diagrams.net" modified="2024-03-10T01:16:10.818Z" agent="Mozilla/5.0 (Windows NT 10.0; Win64; x64) AppleWebKit/537.36 (KHTML, like Gecko) Chrome/122.0.0.0 Safari/537.36 Edg/122.0.0.0" etag="POH9k-IhD93uD8WHKCxU" version="24.0.3" type="device">
  <diagram name="Página-1" id="qUsXG7RSLL9Aq1eQB9rO">
    <mxGraphModel dx="4967" dy="1897" grid="1" gridSize="10" guides="1" tooltips="1" connect="1" arrows="1" fold="1" page="1" pageScale="1" pageWidth="827" pageHeight="1169" math="0" shadow="0">
      <root>
        <mxCell id="0" />
        <mxCell id="1" parent="0" />
        <mxCell id="2A2c7VA1eLcjMjxGGMqq-5" value="" style="edgeStyle=orthogonalEdgeStyle;rounded=0;orthogonalLoop=1;jettySize=auto;html=1;" edge="1" parent="1" source="2A2c7VA1eLcjMjxGGMqq-3" target="2A2c7VA1eLcjMjxGGMqq-4">
          <mxGeometry relative="1" as="geometry" />
        </mxCell>
        <mxCell id="2A2c7VA1eLcjMjxGGMqq-3" value="INICIO" style="ellipse;whiteSpace=wrap;html=1;fillColor=#99CCFF;" vertex="1" parent="1">
          <mxGeometry x="354" width="120" height="80" as="geometry" />
        </mxCell>
        <mxCell id="2A2c7VA1eLcjMjxGGMqq-7" value="" style="edgeStyle=orthogonalEdgeStyle;rounded=0;orthogonalLoop=1;jettySize=auto;html=1;" edge="1" parent="1" source="2A2c7VA1eLcjMjxGGMqq-4">
          <mxGeometry relative="1" as="geometry">
            <mxPoint x="414" y="320" as="targetPoint" />
          </mxGeometry>
        </mxCell>
        <mxCell id="2A2c7VA1eLcjMjxGGMqq-4" value="&quot;Inicializar registros = []&quot; registrar en el diccionario" style="shape=parallelogram;perimeter=parallelogramPerimeter;whiteSpace=wrap;html=1;fixedSize=1;fillColor=#80FF00;" vertex="1" parent="1">
          <mxGeometry x="297" y="190" width="234" height="60" as="geometry" />
        </mxCell>
        <mxCell id="2A2c7VA1eLcjMjxGGMqq-11" value="" style="edgeStyle=orthogonalEdgeStyle;rounded=0;orthogonalLoop=1;jettySize=auto;html=1;" edge="1" parent="1" source="2A2c7VA1eLcjMjxGGMqq-9" target="2A2c7VA1eLcjMjxGGMqq-10">
          <mxGeometry relative="1" as="geometry" />
        </mxCell>
        <mxCell id="2A2c7VA1eLcjMjxGGMqq-9" value="Realizar al menos 10 registros" style="rhombus;whiteSpace=wrap;html=1;fillColor=#474D0A;" vertex="1" parent="1">
          <mxGeometry x="320" y="320" width="190" height="140" as="geometry" />
        </mxCell>
        <mxCell id="2A2c7VA1eLcjMjxGGMqq-15" value="" style="edgeStyle=orthogonalEdgeStyle;rounded=0;orthogonalLoop=1;jettySize=auto;html=1;" edge="1" parent="1" source="2A2c7VA1eLcjMjxGGMqq-10" target="2A2c7VA1eLcjMjxGGMqq-14">
          <mxGeometry relative="1" as="geometry" />
        </mxCell>
        <mxCell id="2A2c7VA1eLcjMjxGGMqq-10" value="SI" style="shape=parallelogram;perimeter=parallelogramPerimeter;whiteSpace=wrap;html=1;fixedSize=1;fillColor=#80FF00;" vertex="1" parent="1">
          <mxGeometry x="-60" y="360" width="120" height="60" as="geometry" />
        </mxCell>
        <mxCell id="2A2c7VA1eLcjMjxGGMqq-17" value="" style="edgeStyle=orthogonalEdgeStyle;rounded=0;orthogonalLoop=1;jettySize=auto;html=1;" edge="1" parent="1" source="2A2c7VA1eLcjMjxGGMqq-14" target="2A2c7VA1eLcjMjxGGMqq-16">
          <mxGeometry relative="1" as="geometry" />
        </mxCell>
        <mxCell id="2A2c7VA1eLcjMjxGGMqq-14" value="&quot;Mostrar los registros almacenados&quot;" style="shape=parallelogram;perimeter=parallelogramPerimeter;whiteSpace=wrap;html=1;fixedSize=1;fillColor=#80FF00;" vertex="1" parent="1">
          <mxGeometry x="-130" y="840" width="260" height="60" as="geometry" />
        </mxCell>
        <mxCell id="2A2c7VA1eLcjMjxGGMqq-19" value="" style="edgeStyle=orthogonalEdgeStyle;rounded=0;orthogonalLoop=1;jettySize=auto;html=1;" edge="1" parent="1" source="2A2c7VA1eLcjMjxGGMqq-16" target="2A2c7VA1eLcjMjxGGMqq-18">
          <mxGeometry relative="1" as="geometry" />
        </mxCell>
        <mxCell id="2A2c7VA1eLcjMjxGGMqq-26" value="" style="edgeStyle=orthogonalEdgeStyle;rounded=0;orthogonalLoop=1;jettySize=auto;html=1;" edge="1" parent="1" target="2A2c7VA1eLcjMjxGGMqq-25">
          <mxGeometry relative="1" as="geometry">
            <mxPoint y="900" as="sourcePoint" />
          </mxGeometry>
        </mxCell>
        <mxCell id="2A2c7VA1eLcjMjxGGMqq-16" value="&quot;Añadir función para buscar un nombre del diccionario2" style="shape=parallelogram;perimeter=parallelogramPerimeter;whiteSpace=wrap;html=1;fixedSize=1;fillColor=#80FF00;" vertex="1" parent="1">
          <mxGeometry x="330" y="840" width="260" height="60" as="geometry" />
        </mxCell>
        <mxCell id="2A2c7VA1eLcjMjxGGMqq-22" value="" style="edgeStyle=orthogonalEdgeStyle;rounded=0;orthogonalLoop=1;jettySize=auto;html=1;" edge="1" parent="1" source="2A2c7VA1eLcjMjxGGMqq-18" target="2A2c7VA1eLcjMjxGGMqq-21">
          <mxGeometry relative="1" as="geometry" />
        </mxCell>
        <mxCell id="2A2c7VA1eLcjMjxGGMqq-18" value="&quot;Solicitar un nombre en los registros&quot;" style="shape=parallelogram;perimeter=parallelogramPerimeter;whiteSpace=wrap;html=1;fixedSize=1;fillColor=#80FF00;" vertex="1" parent="1">
          <mxGeometry x="860" y="690" width="260" height="60" as="geometry" />
        </mxCell>
        <mxCell id="2A2c7VA1eLcjMjxGGMqq-24" value="" style="edgeStyle=orthogonalEdgeStyle;rounded=0;orthogonalLoop=1;jettySize=auto;html=1;entryX=1;entryY=0.5;entryDx=0;entryDy=0;" edge="1" parent="1" source="2A2c7VA1eLcjMjxGGMqq-21" target="2A2c7VA1eLcjMjxGGMqq-9">
          <mxGeometry relative="1" as="geometry">
            <mxPoint x="770" y="410" as="targetPoint" />
          </mxGeometry>
        </mxCell>
        <mxCell id="2A2c7VA1eLcjMjxGGMqq-21" value="&quot;Buscar el nombre en los registros&quot;" style="shape=parallelogram;perimeter=parallelogramPerimeter;whiteSpace=wrap;html=1;fixedSize=1;fillColor=#80FF00;" vertex="1" parent="1">
          <mxGeometry x="860" y="360" width="260" height="60" as="geometry" />
        </mxCell>
        <mxCell id="2A2c7VA1eLcjMjxGGMqq-28" value="" style="edgeStyle=orthogonalEdgeStyle;rounded=0;orthogonalLoop=1;jettySize=auto;html=1;" edge="1" parent="1" source="2A2c7VA1eLcjMjxGGMqq-25" target="2A2c7VA1eLcjMjxGGMqq-27">
          <mxGeometry relative="1" as="geometry" />
        </mxCell>
        <mxCell id="2A2c7VA1eLcjMjxGGMqq-25" value="¿NO SE ENCONTRO NINGUN REGISTRO CON ESE NOMBRE?" style="rhombus;whiteSpace=wrap;html=1;fillColor=#474D0A;" vertex="1" parent="1">
          <mxGeometry x="-150" y="1080" width="300" height="340" as="geometry" />
        </mxCell>
        <mxCell id="2A2c7VA1eLcjMjxGGMqq-30" style="edgeStyle=orthogonalEdgeStyle;rounded=0;orthogonalLoop=1;jettySize=auto;html=1;entryX=0.5;entryY=0;entryDx=0;entryDy=0;" edge="1" parent="1" source="2A2c7VA1eLcjMjxGGMqq-27" target="2A2c7VA1eLcjMjxGGMqq-29">
          <mxGeometry relative="1" as="geometry" />
        </mxCell>
        <mxCell id="2A2c7VA1eLcjMjxGGMqq-27" value="&quot;Mostrar en pantalla: El nombre no fue encontrado en los registros&quot;" style="shape=parallelogram;perimeter=parallelogramPerimeter;whiteSpace=wrap;html=1;fixedSize=1;fillColor=#80FF00;" vertex="1" parent="1">
          <mxGeometry x="-160" y="1570" width="320" height="140" as="geometry" />
        </mxCell>
        <mxCell id="2A2c7VA1eLcjMjxGGMqq-29" value="FIN" style="ellipse;whiteSpace=wrap;html=1;fillColor=#99CCFF;" vertex="1" parent="1">
          <mxGeometry x="-60" y="1840" width="120" height="80" as="geometry" />
        </mxCell>
      </root>
    </mxGraphModel>
  </diagram>
</mxfile>
